<svg id="Capa_1" enable-background="new 0 0 512 512" height="512" viewBox="0 0 512 512" width="512" xmlns="http://www.w3.org/2000/svg"><g><path d="m445.936 222.968c0 69.267-31.586 131.157-81.14 172.053-38.542 31.808-87.954 40.305-141.828 40.305-123.142 0-207.642-89.216-207.642-212.358 0-36.873 17.899-134.324 69.658-175.155 37.959-29.944 85.885-47.813 137.985-47.813 123.141 0 222.967 99.826 222.967 222.968z" fill="#9e959e"/><path d="m428.894 208.042c-7.136-101.469-89.531-183.864-191-191-53.494-3.762-103.017 12.88-141.6 42.92-7.65 5.957-17.723-3.937-11.742-11.568l.432-.581c-54.852 43.272-88.895 111.754-84.623 187.977 6.286 112.177 97.609 203.5 209.786 209.786 76.223 4.271 144.656-29.811 187.928-84.664-.182.144-.365.287-.548.431-7.631 5.981-17.509-4.05-11.552-11.701 30.04-38.583 46.681-88.106 42.919-141.6z" fill="#887f88"/><circle cx="222.969" cy="222.968" fill="#eceaec" r="189.935"/><circle cx="222.969" cy="222.968" fill="#fff" r="173.419"/><g><path d="m379.872 231.226h-156.903c-2.194 0-4.29-.871-5.839-2.419l-107.355-107.355c-3.226-3.226-3.226-8.452 0-11.677s8.452-3.226 11.677 0l104.936 104.935h153.484c4.565 0 8.258 3.698 8.258 8.258s-3.694 8.258-8.258 8.258z" fill="#4e3d4d"/></g><path d="m508.689 475.327-103.515-179.293c-3.433-5.946-8.744-9.723-14.563-11.331l-16.672 11.331-103.514 179.293 13.354 27.438h203.737l23.133-7.28c2.186-6.309 1.846-13.567-1.96-20.158z" fill="#ff7e92"/><path d="m383.799 447.093c-4.565 0-8.258-3.698-8.258-8.258v-99.097c0-4.56 3.694-8.258 8.258-8.258s8.258 3.698 8.258 8.258v99.097c0 4.56-3.693 8.258-8.258 8.258z" fill="#fff"/><path d="m383.831 480.121c-2.226 0-4.371-.907-5.863-2.395-1.565-1.569-2.395-3.714-2.395-5.863 0-2.145.831-4.294 2.395-5.863 3.056-3.052 8.589-3.052 11.645 0 1.573 1.569 2.476 3.718 2.476 5.863 0 2.149-.903 4.294-2.476 5.863-1.483 1.488-3.628 2.395-5.782 2.395z" fill="#fff"/><circle cx="222.969" cy="222.968" fill="#887f88" r="16.516"/><path d="m82.581 231.226h-16.516c-4.565 0-8.258-3.698-8.258-8.258s3.694-8.258 8.258-8.258h16.516c4.565 0 8.258 3.698 8.258 8.258s-3.693 8.258-8.258 8.258z" fill="#615260"/><path d="m222.969 90.839c-4.565 0-8.258-3.698-8.258-8.258v-16.516c0-4.56 3.694-8.258 8.258-8.258 4.565 0 8.258 3.698 8.258 8.258v16.516c0 4.56-3.694 8.258-8.258 8.258z" fill="#615260"/><path d="m222.969 388.129c-4.565 0-8.258-3.698-8.258-8.258v-16.516c0-4.56 3.694-8.258 8.258-8.258 4.565 0 8.258 3.698 8.258 8.258v16.516c0 4.56-3.694 8.258-8.258 8.258z" fill="#615260"/><g fill="#887f88"><path d="m144.509 367.109c-1.403 0-2.823-.355-4.121-1.105-3.952-2.282-5.306-7.331-3.024-11.282l4.129-7.153c2.282-3.952 7.339-5.306 11.282-3.024 3.952 2.282 5.306 7.331 3.024 11.282l-4.129 7.153c-1.532 2.649-4.306 4.129-7.161 4.129z"/><path d="m297.283 102.496c-1.403 0-2.823-.355-4.121-1.105-3.952-2.282-5.306-7.331-3.024-11.282l4.129-7.153c2.282-3.952 7.339-5.302 11.282-3.024 3.952 2.282 5.306 7.331 3.024 11.282l-4.129 7.153c-1.532 2.649-4.306 4.129-7.161 4.129z"/><path d="m94.227 156.903c-1.403 0-2.823-.355-4.121-1.109l-7.145-4.129c-3.952-2.282-5.306-7.331-3.024-11.282 2.282-3.948 7.331-5.31 11.282-3.016l7.145 4.129c3.952 2.282 5.306 7.331 3.024 11.282-1.532 2.645-4.307 4.125-7.161 4.125z"/></g><g><path d="m148.654 102.496c-2.855 0-5.629-1.48-7.161-4.129l-4.129-7.153c-2.282-3.952-.927-9 3.024-11.282 3.935-2.278 8.992-.927 11.282 3.024l4.129 7.153c2.282 3.952.927 9-3.024 11.282-1.298.75-2.718 1.105-4.121 1.105z" fill="#887f88"/></g><path d="m351.71 156.903c-2.855 0-5.629-1.48-7.161-4.125-2.282-3.952-.927-9 3.024-11.282l7.145-4.129c3.927-2.294 8.992-.931 11.282 3.016 2.282 3.952.927 9-3.024 11.282l-7.145 4.129c-1.298.754-2.717 1.109-4.121 1.109z" fill="#887f88"/><path d="m87.098 309.677c-2.855 0-5.629-1.48-7.161-4.125-2.282-3.952-.927-9 3.024-11.282l7.145-4.129c3.927-2.29 8.992-.927 11.282 3.016 2.282 3.952.927 9-3.024 11.282l-7.145 4.129c-1.299.755-2.718 1.109-4.121 1.109z" fill="#887f88"/><g><path d="m301.428 367.109c-2.855 0-5.629-1.48-7.161-4.129l-4.129-7.153c-2.282-3.952-.927-9 3.024-11.282 3.935-2.282 8.992-.927 11.282 3.024l4.129 7.153c2.282 3.952.927 9-3.024 11.282-1.298.75-2.718 1.105-4.121 1.105z" fill="#887f88"/></g><g><path d="m358.84 309.677c-1.403 0-2.823-.355-4.121-1.109l-7.145-4.129c-3.952-2.282-5.306-7.331-3.024-11.282 2.282-3.944 7.331-5.306 11.282-3.016l7.145 4.129c3.952 2.282 5.306 7.331 3.024 11.282-1.532 2.646-4.307 4.125-7.161 4.125z" fill="#887f88"/></g><path d="m311.277 495.484c-18.821 0-30.584-20.374-21.173-36.673l100.508-174.107c-10.132-2.798-21.807.978-27.784 11.33l-103.515 179.293c-9.41 16.299 2.353 36.673 21.173 36.673h207.029c11.202 0 19.908-7.235 23.133-16.516z" fill="#ff5f7a"/></g></svg>