<?xml version="1.0" encoding="UTF-8" standalone="no"?>
<svg
   viewBox="0 0 279.06 301.85"
   version="1.1"
   id="svg8"
   sodipodi:docname="icon.svg"
   inkscape:version="1.1.1 (3bf5ae0d25, 2021-09-20, custom)"
   xmlns:inkscape="http://www.inkscape.org/namespaces/inkscape"
   xmlns:sodipodi="http://sodipodi.sourceforge.net/DTD/sodipodi-0.dtd"
   xmlns="http://www.w3.org/2000/svg"
   xmlns:svg="http://www.w3.org/2000/svg"
   xmlns:rdf="http://www.w3.org/1999/02/22-rdf-syntax-ns#"
   xmlns:cc="http://creativecommons.org/ns#"
   xmlns:dc="http://purl.org/dc/elements/1.1/">
  <defs
     id="defs12" />
  <sodipodi:namedview
     id="namedview10"
     pagecolor="#ffffff"
     bordercolor="#666666"
     borderopacity="1.0"
     inkscape:pageshadow="2"
     inkscape:pageopacity="0.0"
     inkscape:pagecheckerboard="0"
     showgrid="false"
     inkscape:zoom="2.9783004"
     inkscape:cx="32.233149"
     inkscape:cy="97.203089"
     inkscape:window-width="3440"
     inkscape:window-height="1355"
     inkscape:window-x="0"
     inkscape:window-y="0"
     inkscape:window-maximized="1"
     inkscape:current-layer="Layer_2" />
  <title
     id="title2">dob</title>
  <g
     id="Layer_2"
     data-name="Layer 2"
     style="fill:#000080">
    <g
       id="Layer_1-2"
       data-name="Layer 1"
       style="fill:#000080;fill-opacity:1">
      <path
         d="m 207.75,159.24 c -28.84308,0 -54.8461,17.3753 -65.88231,44.02274 -11.03619,26.64739 -4.93186,57.3184 15.46462,77.71202 20.39648,20.39362 51.06835,26.49365 77.71419,15.45372 26.64589,-11.03994 44.01754,-37.0454 44.0135,-65.88848 -0.0496,-39.36124 -31.94875,-71.25592 -71.31,-71.3 z m 0,132.61 c -24.79755,0 -47.15355,-14.93778 -56.64263,-37.84733 -9.48906,-22.90949 -4.24233,-49.27874 13.29212,-66.81318 17.53444,-17.53445 43.90369,-22.78118 66.81318,-13.29212 22.90955,9.48908 37.84733,31.84508 37.84733,56.64263 -0.0386,33.84459 -27.46541,61.27142 -61.31,61.31 z M 70.29,58.24 V 9.5 C 70.30647,4.2601317 74.550132,0.01646906 79.79,0 v 0 c 5.239868,0.01646906 9.483531,4.2601317 9.5,9.5 v 48.74 c -0.01647,5.239868 -4.260132,9.483531 -9.5,9.5 v 0 c -5.239868,-0.01647 -9.483531,-4.260132 -9.5,-9.5 z m 68.49244,226.6788 c -0.81082,-9.16293 -3.09564,-15.09304 -4.12568,-25.82835 -6.54645,-17.32901 -4.85321,-38.11144 1.69324,-55.44045 v -42.08 h 38.8 c 20.63805,-9.77349 44.57195,-9.77349 65.21,0 h 4.08 v 2.09 c 3.50059,1.93169 6.84419,4.13512 10,6.59 v -109 C 254.42347,43.372252 239.93774,28.88205 222.06,28.86 h -35.94 v 29.38 c 0,8.008134 -6.49187,14.499994 -14.5,14.499994 -8.00813,0 -14.5,-6.49186 -14.5,-14.499994 V 28.87 H 94.29 v 29.37 c 0,8.008134 -6.491871,14.499994 -14.5,14.499994 -8.008129,0 -14.5,-6.49186 -14.5,-14.499994 V 28.87 H 32.39 C 14.510634,28.892039 0.02203931,43.380634 0,61.26 v 189.67 c 0.02203931,17.87937 14.510634,32.36796 32.39,32.39 l 106.39244,1.5988 c -2.98025,-3.10155 -8.24,0 0,0 z M 197.41,98.32 h 47 v 53.26 h -47 z m -61.06,0 h 51.06 v 53.26 h -51.06 z m -71.06,175 H 32.39 C 20.031196,273.30347 10.016526,263.2888 10,250.93 v -26.1 h 55.29 z m 0,-58.49 H 10 v -53.26 h 55.29 z m 0,-63.26 H 10 V 98.31 h 55.29 z m 61.06,121.75 H 75.29 v -48.49 h 51.06 z m 0,-58.49 H 75.29 v -53.26 h 51.06 z m 0,-63.26 H 75.29 V 98.31 h 51.06 z M 162.12,58.24 V 9.5 c 0,-5.2467087 4.25329,-9.4999958758838 9.5,-9.4999958758838 5.24671,0 9.5,4.2532871758838 9.5,9.4999958758838 v 48.74 c 0,5.246709 -4.25329,9.499996 -9.5,9.499996 -5.24671,0 -9.5,-4.253287 -9.5,-9.499996 z"
         id="path4"
         style="fill:#000080;fill-opacity:1"
         sodipodi:nodetypes="cssscccsssccccssccsscccccccccccccsssccssscccccccccccccccccccccccccccccccccccccccccccccccccsssssss" />
    </g>
  </g>
  <metadata
     id="metadata829">
    <rdf:RDF>
      <cc:Work
         rdf:about="">
        <dc:title>dob</dc:title>
      </cc:Work>
    </rdf:RDF>
  </metadata>
  <rect
     style="fill:#ff0000"
     id="rect1048"
     width="55.290001"
     height="53.259998"
     x="10"
     y="98.309998" />
  <rect
     style="fill:#ff0000"
     id="rect1052"
     width="51.060001"
     height="53.259998"
     x="75.290001"
     y="98.309998" />
  <rect
     style="fill:#ff0000"
     id="rect1054"
     width="51.060001"
     height="53.259998"
     x="136.35001"
     y="98.32" />
  <rect
     style="fill:#ff0000"
     id="rect1056"
     width="47"
     height="53.259998"
     x="197.41"
     y="98.32" />
  <rect
     style="fill:#ff0000"
     id="rect1058"
     width="55.290001"
     height="53.259998"
     x="10"
     y="161.57001" />
  <rect
     style="fill:#ff0000"
     id="rect1060"
     width="51.060001"
     height="53.259998"
     x="75.290001"
     y="161.57001" />
  <rect
     style="fill:#ff0000"
     id="rect1065"
     width="55.290001"
     height="48.490002"
     x="10"
     y="224.83" />
  <rect
     style="fill:#ff0000"
     id="rect1067"
     width="51.060001"
     height="48.490002"
     x="75.290001"
     y="224.83" />
  <ellipse
     style="fill:#ff0000;stroke-width:1"
     id="path22701"
     cx="208.23207"
     cy="230.67633"
     rx="62.301556"
     ry="62.241879" />
  <g
     id="layer2"
     transform="matrix(0.17058977,0,0,0.18620865,137.60394,83.542356)"
     style="stroke-width:5.61079">
    <g
       style="fill:#000000;fill-opacity:0.470588;stroke-width:5.61079;stroke-linejoin:miter"
       id="g10145">
      <path
         d="m 878.7113,963.25366 -4.75354,0.77884 q -33.79492,2.3547 -197.76672,3.7662 -165.10641,1.41016 -388.84839,1.1438 -213.53247,-0.37243 -341.556967,-2.1803 -41.020493,-0.5847 -67.576623,-1.2739 l -22.31981,-0.70815 q -18.39343,-0.73135 -18.60029,-1.52625 5.58378,-2.4402 152.512767,-4.0602 146.929003,-1.62 368.198333,-1.6815 221.26934,0.0614 368.19854,1.6814 146.92884,1.62 152.5127,4.06006"
         id="path10143"
         style="stroke-width:5.61079" />
    </g>
    <g
       style="fill:#535d66;fill-opacity:1;stroke-width:5.61079;stroke-linejoin:miter"
       id="g10149">
      <path
         d="M 250.41833,604.52313 C 150.76482,604.9285 70.30178,686.0495 70.7074,785.70435 71.11322,885.3583 152.23407,965.8218 251.88733,965.41675 351.54086,965.01135 432.00418,883.89 431.59866,784.2362 431.19308,684.58124 350.0723,604.1174 250.41833,604.52313 Z"
         id="path10147"
         style="stroke-width:5.61079" />
    </g>
    <g
       style="fill:#ffffff;fill-opacity:1;stroke-width:5.61079;stroke-linejoin:miter"
       id="g10153">
      <path
         d="m 239.98325,796.23157 c 2.88302,2.85963 6.85583,4.61973 11.23425,4.60217 8.40765,-0.0346 15.28128,-6.63794 15.76327,-14.92014 l 77.80121,-78.446 -16.89163,-16.7549 -76.80588,77.42646 -52.09225,-51.66266 -16.75472,16.89124 53.096,52.67416 c 0.25405,3.9803 1.98968,7.55124 4.64975,10.18967 z M 250.51529,628.3178 c 86.37619,-0.35155 156.93677,69.6381 157.28833,156.01484 0.35135,86.3761 -69.63727,156.93786 -156.01325,157.28846 C 165.41483,941.97266 94.8542,871.9839 94.502426,785.6074 94.15096,699.2308 164.13936,628.66925 250.51529,628.3178 Z"
         id="path10151"
         style="stroke-width:5.61079" />
    </g>
    <g
       style="fill:#6d6d6d;fill-opacity:1;stroke-width:5.61079;stroke-linejoin:miter"
       id="g10157">
      <path
         d="m 252.0957,769.1421 -1.01123,-1.00294 -52.09225,-51.66266 -16.75472,16.89124 53.096,52.67416 c -0.0333,-0.3334 -0.0425,-0.6663 -0.0438,-1.00735 l 15.79868,-15.92825 c 0.341,-9.5e-4 0.67438,0.006 1.00735,0.0358 z"
         id="path10155"
         style="stroke-width:5.61079" />
    </g>
    <g
       style="fill:#919191;fill-opacity:1;stroke-width:5.61079;stroke-linejoin:miter"
       id="g10161">
      <path
         d="m 344.78198,707.4676 -16.89163,-16.7549 -76.80588,77.42646 1.01123,1.00294 14.92066,15.76354 c 10e-4,0.3407 -0.005,0.67406 -0.0356,1.00796 z"
         id="path10159"
         style="stroke-width:5.61079" />
    </g>
    <g
       style="fill:#484848;fill-opacity:1;stroke-width:5.61079;stroke-linejoin:miter"
       id="g10165">
      <path
         d="M 245.92648,781.7926 170.1619,858.177 c -2.31374,2.3325 -2.29839,6.0995 0.0341,8.412 1.16588,1.1567 2.69138,1.7313 4.21317,1.7257 1.52225,-0.006 3.04269,-0.59326 4.19937,-1.75977 l 75.76447,-76.3844 z"
         id="path10163"
         style="stroke-width:5.61079" />
    </g>
    <g
       style="fill:#000000;fill-opacity:1;stroke-width:5.61079;stroke-linejoin:miter"
       id="g10169">
      <path
         d="m 251.2175,800.83374 c 8.74692,-0.036 15.8344,-7.18114 15.79886,-15.9281 -0.0359,-8.74707 -7.18086,-15.8346 -15.92801,-15.79934 -8.74725,0.0358 -15.83441,7.18105 -15.79868,15.92825 0.0356,8.74705 7.18073,15.83459 15.92783,15.79919 z"
         id="path10167"
         style="stroke-width:5.61079" />
    </g>
    <g
       style="fill:#000000;fill-opacity:1;stroke-width:5.61079;stroke-linejoin:miter"
       id="g10173">
      <path
         d="m 250.73325,681.85724 c -3.2854,0.013 -5.95957,-2.63954 -5.973,-5.92468 l -0.0967,-23.79529 c -0.0135,-3.28577 2.63904,-5.95937 5.92453,-5.97317 3.28513,-0.013 5.9596,2.6397 5.97286,5.9248 l 0.097,23.7951 c 0.0132,3.285 -2.63956,5.96006 -5.92465,5.97324 z"
         id="path10171"
         style="stroke-width:5.61079" />
    </g>
    <g
       style="fill:#000000;fill-opacity:1;stroke-width:5.61079;stroke-linejoin:miter"
       id="g10177">
      <path
         d="m 384.0328,790.37866 -23.79498,0.0973 c -3.28542,0.0124 -5.95972,-2.63965 -5.97308,-5.92565 -0.0134,-3.2848 2.63922,-5.95887 5.92456,-5.9729 l 23.795,-0.0958 c 3.28544,-0.0143 5.95955,2.63879 5.9732,5.92358 0.0132,3.2854 -2.63932,5.96008 -5.9247,5.97351 z"
         id="path10175"
         style="stroke-width:5.61079" />
    </g>
    <g
       style="fill:#000000;fill-opacity:1;stroke-width:5.61079;stroke-linejoin:miter"
       id="g10181">
      <path
         d="m 251.71793,923.775 c -3.28537,0.0132 -5.95951,-2.63926 -5.97306,-5.92405 l -0.0969,-23.79541 c -0.0134,-3.28589 2.63922,-5.95947 5.92471,-5.97314 3.28522,-0.0131 5.9596,2.6393 5.97275,5.9247 l 0.097,23.7949 c 0.0132,3.2854 -2.63938,5.9597 -5.9245,5.973 z"
         id="path10179"
         style="stroke-width:5.61079" />
    </g>
    <g
       style="fill:#000000;fill-opacity:1;stroke-width:5.61079;stroke-linejoin:miter"
       id="g10185">
      <path
         d="m 142.11678,791.3622 -23.795,0.098 c -3.28539,0.0126 -5.95963,-2.63977 -5.97306,-5.92553 -0.0133,-3.28527 2.6392,-5.95947 5.92459,-5.97267 l 23.795,-0.0964 c 3.28534,-0.0138 5.95948,2.63865 5.97301,5.9242 0.0132,3.2854 -2.63921,5.95944 -5.92454,5.9724 z"
         id="path10183"
         style="stroke-width:5.61079" />
    </g>
    <g
       style="fill:#ffffff;fill-opacity:0.996078;stroke-width:5.61079;stroke-linejoin:miter"
       id="g10189">
      <path
         d="m 242.0791,649.72784 v 1.3e-4 2.3e-4 -3.6e-4"
         id="path10187"
         style="stroke-width:5.61079" />
    </g>
    <g
       style="fill:#000000;fill-opacity:1;stroke-width:5.61079;stroke-linejoin:miter"
       id="g10193">
      <path
         d="m 431.0247,747.56036 c 0.0835,0.0791 0.87542,0.30044 1.74865,0.51974 0.87237,0.1921 1.85687,0.51634 2.1878,0.72373 0.30305,0.18103 1.14905,0.40087 1.82892,0.48997 0.70685,0.0885 1.36188,0.25954 1.4469,0.3926 0.0851,0.1332 0.35883,0.2339 0.65643,0.22534 0.27075,-0.008 1.07038,0.4845 1.81964,1.11366 1.27729,1.10155 1.30658,1.1821 1.29151,2.5641 -0.006,0.75864 -0.1435,1.6295 -0.29815,1.9049 -0.3871,0.6881 -0.0709,1.32945 0.80523,1.6567 0.90252,0.2996 3.41021,1.8001 3.41637,2.0166 0.003,0.1082 0.55433,0.445 1.24183,0.80447 0.6875,0.35998 1.23962,0.72373 1.24255,0.83193 0.004,0.13535 0.2226,0.21055 0.49329,0.20286 0.7309,-0.0208 1.9942,1.54174 2.02185,2.51648 0.007,0.24353 0.26495,0.75086 0.54638,1.12206 0.30775,0.34364 0.7143,1.30726 0.92744,2.14137 0.45581,1.74793 0.95459,2.14013 3.21203,2.45556 0.87,0.11087 1.95813,0.26987 2.42066,0.33814 0.78869,0.11293 0.89489,0.0289 1.56421,-1.20911 0.4132,-0.71616 0.80084,-1.37732 0.9068,-1.46143 0.10601,-0.0843 0.49444,-0.71863 0.87982,-1.46093 0.38617,-0.7152 0.8302,-1.29663 0.96557,-1.30054 0.21657,-0.006 0.81739,0.16664 3.25197,0.99158 0.57372,0.17346 3.34093,0.31186 7.05315,0.3424 6.17785,0.042 11.00769,0.31176 12.75397,0.75026 1.17248,0.26476 3.52746,0.198 5.08898,-0.1442 1.83075,-0.40366 3.06196,0.0219 4.6501,1.57546 2.67583,2.6604 3.80864,6.31284 2.95366,9.61487 -0.19416,0.79127 -0.55969,2.23757 -0.77576,3.21877 -0.48022,2.181 -1.07012,4.3108 -1.37432,5.051 -0.0999,0.30067 -0.45276,1.2317 -0.72742,2.052 -0.90186,2.5994 -3.74432,8.423 -5.68346,11.70167 -0.54243,0.93628 -0.9781,1.81567 -0.9728,2.00523 0.005,0.16225 -0.12688,0.30153 -0.2622,0.3053 -0.16247,0.005 -0.26757,0.116 -0.2638,0.25136 0.01,0.35194 -4.5739,7.82324 -5.3886,8.71324 -0.15625,0.22096 -0.3125,0.44215 -0.31024,0.52345 0.008,0.29775 -1.659,2.64759 -1.87549,2.65369 -0.10827,0.003 -0.21197,0.16856 -0.20581,0.38516 0.005,0.1893 -0.17493,0.5196 -0.38623,0.7153 -0.39606,0.3634 -0.51019,2.07337 -0.12671,2.2251 0.10918,0.0239 0.83648,0.84314 1.59508,1.7971 0.78468,0.9259 1.54316,1.87966 1.7394,2.11794 0.1687,0.21191 1.03906,1.29822 1.88268,2.38501 0.87055,1.0863 1.65832,2.12048 1.77039,2.25281 1.7666,2.11744 2.50098,3.18017 2.7923,3.90334 0.089,0.26865 0.28453,0.4796 0.41993,0.4759 0.1353,-0.004 0.24895,0.18265 0.25505,0.3991 0.006,0.2168 0.11975,0.40293 0.25513,0.39915 0.13538,-0.004 0.35956,0.26075 0.47712,0.58252 0.11816,0.34873 0.2627,0.66993 0.37328,0.74793 0.22187,0.18346 1.24462,1.8613 2.33062,3.8622 0.4584,0.8813 1.11396,2.02756 1.45332,2.53257 0.68091,1.09179 2.33826,4.13318 4.77313,8.80517 1.97485,3.73682 3.62671,6.58886 4.1864,7.22326 0.22272,0.21046 0.39595,0.58485 0.40285,0.8285 0.006,0.21643 0.29124,0.72314 0.65398,1.09216 0.3363,0.39684 0.87202,1.14014 1.18567,1.70008 0.2868,0.56076 0.82495,1.38536 1.19055,1.86276 0.36487,0.4501 0.65008,0.9568 0.654,1.0922 0.005,0.16235 0.11754,0.32165 0.25438,0.3722 0.13617,0.0231 0.47474,0.5012 0.75982,1.0079 0.85432,1.4657 3.935,5.9844 6.1614,9.0369 1.3245,1.8048 2.3589,2.9404 2.9906,3.24767 1.3462,0.66613 2.1033,1.56593 2.6055,3.04163 0.23863,0.7789 0.83385,1.7102 1.47484,2.3424 1.28196,1.2639 2.7384,3.9049 3.28442,5.97546 0.24344,0.94129 0.44224,3.18421 0.49794,6.10854 l 0.1317,4.65587 0.65796,0.27963 c 0.41138,0.1779 1.46864,0.20206 2.87304,0.054 1.94447,-0.21754 2.37904,-0.17555 3.36744,0.2839 1.70276,0.819 4.06726,3.00075 4.64612,4.3118 0.83789,1.8457 0.86644,1.89904 2.43174,2.64037 1.86745,0.89538 2.8156,0.89563 3.38576,-0.0144 0.54334,-0.90942 1.18374,-1.25256 3.1731,-1.79636 3.52234,-0.9395 5.14284,-1.1209 7.07458,-0.8234 1.00611,0.1343 2.8274,0.3535 4.02306,0.48207 1.19496,0.10183 2.5281,0.30798 2.965,0.43113 0.4377,0.15017 1.68614,0.2234 2.7688,0.19265 1.8137,-0.0512 3.14854,0.20925 4.87767,0.99985 0.76709,0.3034 3.97193,0.59195 8.96103,0.7489 2.22366,0.0724 4.9103,0.2405 5.9707,0.3732 1.0324,0.1062 3.3136,0.31274 5.02395,0.4269 1.70995,0.1141 3.96435,0.3214 5.02381,0.42686 1.03334,0.1333 3.47571,0.281 5.42784,0.3341 2.76466,0.0571 3.6897,0.19348 4.29677,0.58274 0.99206,0.5951 4.40283,0.4987 5.79199,-0.1909 0.854,-0.4574 0.93518,-0.4598 1.98354,0.21485 0.79966,0.49231 1.91954,0.81275 4.0409,1.10511 2.04,0.29431 3.4331,0.68824 4.61374,1.25097 1.20862,0.58877 2.27271,0.85681 3.79396,1.00327 1.16784,0.10244 3.34496,0.4474 4.8707,0.75625 1.5807,0.3346 3.9728,0.61925 5.70754,0.65149 1.62646,0.0352 4.20556,0.23316 5.7008,0.40772 3.01756,0.37514 9.26316,1.85107 10.77271,2.53979 1.07031,0.48475 10.38575,3.2284 12.97585,3.80545 2.7263,0.6002 8.13694,1.28696 9.842,1.23874 1.73256,-0.0491 4.31557,0.28443 5.4926,0.71166 0.3829,0.1245 1.25363,0.2626 1.93186,0.2974 0.67834,0.0351 2.06334,0.15867 3.12439,0.3182 1.03335,0.1332 2.74635,0.3557 3.80578,0.4611 1.0332,0.1334 2.2583,0.3426 2.72227,0.4648 0.43777,0.1505 2.28994,0.5044 4.08645,0.8058 1.79665,0.3013 4.11135,0.72363 5.14599,0.91113 1.88001,0.38013 3.58081,0.16932 4.83376,-0.54323 0.24,-0.14207 1.4791,-0.394 2.6932,-0.5638 2.21377,-0.2793 4.08535,-0.19655 6.6459,0.29966 0.7085,0.14258 3.0974,0.31909 5.3489,0.41784 2.2251,0.1267 5.3719,0.2816 6.972,0.3446 2.95766,0.1604 5.4153,-0.0987 8.72585,-0.87 2.17955,-0.5221 5.53345,-1.67344 5.9032,-2.009 0.13159,-0.13905 0.45325,-0.2565 0.724,-0.2643 0.5957,-0.0167 3.76001,-1.1626 4.07565,-1.4967 0.1585,-0.1399 0.4533,-0.2567 0.6968,-0.2634 0.40613,-0.0116 1.042,-0.51724 3.68006,-3.0302 0.3689,-0.3628 2.76477,-2.81443 5.31874,-5.43333 2.55284,-2.64587 5.1074,-5.23743 5.66136,-5.76797 0.5531,-0.55735 1.67954,-1.91685 2.46104,-3.02244 0.7815,-1.10571 1.74856,-2.35216 2.1161,-2.76892 0.4464,-0.50024 0.75135,-1.21324 0.8373,-2.00134 0.0892,-0.67957 0.37975,-1.90735 0.65526,-2.70044 0.30201,-0.82141 0.62024,-2.02236 0.73644,-2.70276 0.23463,-1.28 -3.5e-4,-3.84704 -0.4542,-4.56555 -0.2847,-0.47985 -1.01576,-2.38255 -1.4601,-3.72461 -1.6047,-5.02064 -1.17223,-6.00818 2.77015,-6.47168 1.86315,-0.21556 1.75255,-0.2937 3.76585,1.92529 1.3416,1.45191 2.2754,2.86145 3.339,5.02588 1.293,2.61827 1.5,3.23557 2.1096,5.62927 0.30215,1.1024 0.6381,2.4474 0.78787,2.95765 1.08569,3.8977 1.39773,5.3518 2.04453,10.02025 0.2316,1.4834 -0.2258,7.34803 -0.7082,9.44776 -0.12075,0.51844 -0.27505,1.76868 -0.3279,2.77259 -0.0864,1.7362 -0.0564,1.84385 0.4581,1.82925 0.5955,-0.0169 5.7564,-5.2831 7.24184,-7.3567 0.72962,-1.0231 0.77771,-1.2411 0.71106,-3.59633 -0.095,-3.35667 0.0365,-3.49587 3.312,-3.58837 l 2.4364,-0.067 0.7847,0.92417 c 0.7004,0.81993 1.1882,1.78137 2.31895,4.40453 0.75515,1.79383 1.77771,6.3433 2.50865,11.1177 0.5026,3.3994 0.83315,15.09325 0.5076,17.94725 -0.918,7.77405 -3.1808,13.01245 -5.87635,13.49485 -0.51209,0.096 -1.53321,0.3955 -2.22915,0.68606 l -1.31346,0.4978 0.2721,2.91809 c 0.26756,2.75585 0.24656,2.9729 -0.36328,4.39895 -0.38379,0.7966 -0.84729,1.64964 -1.08556,1.84605 -0.2113,0.19555 -0.3932,0.47155 -0.38844,0.63391 0.004,0.1355 -0.54636,0.80139 -1.20532,1.44284 l -1.21241,1.1994 -7.06663,0.1455 -7.0945,0.11924 -2.60437,-1.09094 c -1.42593,-0.60987 -3.10107,-1.4022 -3.7074,-1.7649 -0.6604,-0.36047 -1.64403,-0.65783 -2.45763,-0.6886 -1.2754,-0.0729 -2.20265,-0.29015 -3.5443,-0.79406 -0.30153,-0.12684 -2.4989,-0.2273 -4.88234,-0.21399 -2.49196,0.0163 -4.55386,-0.088 -4.88406,-0.26831 -0.7424,-0.3855 -5.5218,-0.79199 -9.7208,-0.78164 l -3.44104,-0.0112 0.0521,1.8407 c 0.0283,1.0016 0.20115,2.3241 0.3534,2.91564 0.4852,1.82861 0.8686,7.72386 0.551,8.95176 -0.3877,1.6093 -1.0314,1.8444 -5.31287,1.803 -1.89723,-0.0277 -8.91343,-0.0189 -15.60413,0.008 -6.6631,0.0527 -12.2185,-0.007 -12.3832,-0.0834 -0.13754,-0.0775 -2.14597,-0.21007 -4.3967,-0.2822 -2.2783,-0.098 -5.2621,-0.23036 -6.5923,-0.32826 -3.2583,-0.26014 -8.68516,-0.56704 -13.16,-0.73854 -8.0016,-0.34276 -10.63356,-0.4851 -11.48037,-0.73204 -1.09193,-0.29416 -3.64953,-0.68236 -5.76708,-0.83936 -0.89625,-0.083 -1.76695,-0.22094 -1.90555,-0.3253 -0.1654,-0.10365 -1.2805,-0.2616 -2.529,-0.33485 -1.221,-0.0739 -2.3091,-0.23279 -2.3943,-0.36575 -0.085,-0.1333 -0.5482,-0.22824 -1.00844,-0.2154 -0.4873,0.0139 -1.98376,-0.2145 -3.31836,-0.47525 -1.36206,-0.25952 -4.2142,-0.53065 -6.38366,-0.60495 -3.20044,-0.1261 -4.23354,-0.25955 -5.57507,-0.76345 -2.57457,-0.98389 -3.60853,-1.14405 -9.87697,-1.50865 -3.2296,-0.20656 -7.058,-0.50466 -8.47155,-0.6814 -1.41381,-0.1769 -4.72545,-0.40834 -7.32861,-0.4972 -2.76574,-0.0846 -6.21509,-0.39344 -8.28384,-0.7411 -1.9597,-0.32385 -4.48764,-0.63196 -5.65415,-0.68005 -1.13915,-0.0489 -2.09105,-0.18455 -2.09425,-0.29285 -0.004,-0.1354 -0.8197,-0.2478 -1.8506,-0.30005 -1.0039,-0.0529 -2.7695,-0.21935 -3.9117,-0.37685 -2.01234,-0.26805 -2.1477,-0.2644 -4.2122,0.49843 -1.17966,0.4397 -2.6833,0.91541 -3.3291,1.06922 -0.618,0.18015 -1.6396,0.45285 -2.2307,0.63205 -1.0743,0.32864 -2.15026,0.6027 -4.9493,1.2509 -4.172,0.95787 -22.29776,1.8497 -28.29837,1.369 -2.85083,-0.2173 -3.44923,-0.30884 -6.53273,-1.0884 -4.09324,-1.0492 -4.4452,-1.0394 -7.18113,-0.0682 l -1.98387,0.7335 -12.3444,0.3219 c -12.15486,0.31653 -17.46577,0.27735 -19.70002,-0.1742 -0.62641,-0.11754 -2.07636,-0.61864 -3.22938,-1.1549 -1.17926,-0.50854 -2.27423,-0.91076 -2.46374,-0.90564 -0.37896,0.011 -4.86359,-4.33252 -4.87433,-4.71142 -0.009,-0.32494 -2.8725,-4.82214 -3.82635,-5.98731 -0.36505,-0.45019 -1.13416,-1.78308 -1.70838,-2.93173 -1.49267,-2.965 -2.2533,-4 -4.53735,-6.2111 -1.4195,-1.3414 -2.19355,-1.88854 -2.65375,-1.8755 -0.62256,0.0176 -0.69995,0.1554 -0.82635,1.43215 -0.4513,4.15785 -0.69458,5.14002 -1.38617,5.59302 -0.42536,0.28283 -0.93738,0.37853 -1.34638,0.28183 -0.62726,-0.14475 -1.7791,-1.60227 -2.52893,-3.2065 -1.03711,-2.192 -3.16565,-4.6514 -4.03187,-4.6271 -0.32476,0.009 -1.58178,0.5867 -2.83568,1.2725 l -2.24085,1.2281 -1.88903,4.0901 c -1.04718,2.251 -2.91077,6.2859 -4.16138,9.0033 -1.25146,2.69044 -2.61029,5.4109 -3.02496,6.07264 -1.58307,2.45596 -5.24293,5.24146 -7.42554,5.65539 -0.67371,0.12757 -1.27228,0.036 -1.93189,-0.29748 -1.0169,-0.51295 -3.33282,-1.93765 -3.55542,-2.14805 -0.0843,-0.10586 -0.63715,-0.4967 -1.24487,-0.91274 -0.60791,-0.41636 -1.2442,-0.88636 -1.38342,-1.01783 -1.11493,-1.1062 -5.70209,-3.33349 -10.02661,-4.89086 -2.43585,-0.87952 -6.25052,-2.61377 -6.5853,-2.9563 -0.0835,-0.079 -0.63339,-0.36133 -1.23645,-0.61547 -0.60315,-0.2537 -1.29065,-0.6134 -1.51187,-0.76967 -0.2211,-0.15649 -1.40119,-0.69177 -2.60593,-1.14553 -2.84888,-1.11155 -4.80447,-2.248 -4.81903,-2.76255 -0.007,-0.24355 0.10933,-0.92405 0.25421,-1.55115 0.14552,-0.60034 0.40955,-1.7997 0.60315,-2.61804 0.70317,-2.91856 2.41153,-10.52536 2.86537,-12.67836 0.14107,-0.76255 0.33535,-1.5536 0.4375,-1.7732 0.075,-0.21897 0.24,-1.0904 0.35244,-1.90635 0.27736,-1.6875 1.11154,-5.72045 1.48312,-6.95019 0.12231,-0.46411 0.28659,-1.36266 0.3486,-2.04176 0.0892,-0.6797 0.22934,-1.4691 0.32924,-1.77 0.30257,-0.7943 0.78032,-3.05665 1.00664,-4.63416 1.02069,-7.01834 1.14001,-7.59094 2.26062,-10.11487 1.1214,-2.49707 1.40939,-3.80557 2.27764,-10.46741 0.13492,-0.979 0.3169,-2.20336 0.43772,-2.72146 0.12094,-0.51816 0.37195,-2.1777 0.60053,-3.6743 0.20155,-1.4957 0.48437,-2.99377 0.60965,-3.3495 0.30126,-0.84837 0.16915,-4.556 -0.17237,-5.14207 -0.14233,-0.24013 -0.66241,-1.39038 -1.15491,-2.51428 -0.49222,-1.12405 -1.26446,-2.56485 -1.68875,-3.20315 -0.45153,-0.6372 -1.64132,-2.4731 -2.68877,-4.06895 -1.04823,-1.62265 -2.01142,-3.11255 -2.18,-3.32458 -0.14142,-0.21277 -0.3416,-0.58617 -0.45603,-0.79967 -0.0872,-0.21437 -0.66167,-1.3632 -1.26452,-2.5651 -0.62927,-1.1742 -1.12158,-2.2981 -1.12613,-2.46055 -0.005,-0.16235 -0.18232,-0.69909 -0.41269,-1.1803 -0.23033,-0.48132 -0.60596,-1.31045 -0.8656,-1.87195 -0.259,-0.5343 -0.46451,-1.0974 -0.46899,-1.26 -0.005,-0.16236 -0.11674,-0.29456 -0.22504,-0.2916 -0.10837,0.003 -0.45136,-0.6375 -0.7443,-1.4146 -0.87722,-2.27806 -2.3937,-5.1338 -3.45986,-6.43126 -0.53424,-0.6892 -0.98728,-1.38084 -0.99334,-1.59729 -0.006,-0.21655 -0.2869,-0.56105 -0.64482,-0.76755 -0.96585,-0.62295 -1.96783,-1.5697 -2.47653,-2.314 -0.42432,-0.6382 -0.97482,-0.9476 -3.38535,-1.8818 -2.65783,-1.06277 -3.73345,-1.7367 -5.57125,-3.4998 -1.94985,-1.89537 -2.8266,-3.198 -4.21781,-6.4094 -0.28979,-0.6692 -0.7752,-1.54956 -1.086,-2.0012 -0.93002,-1.2743 -5.15521,-8.90273 -5.90951,-10.66934 -0.92746,-2.14111 -2.45346,-7.24536 -2.96091,-9.85886 -0.15744,-0.78115 -0.37759,-1.85854 -0.50039,-2.3699 -0.0957,-0.5121 -0.52631,-1.3667 -0.94687,-1.86975 -1.17746,-1.40222 -1.43796,-1.99095 -1.47309,-3.23608 -0.0231,-0.81213 -0.31442,-1.53552 -0.99551,-2.62697 -0.53803,-0.8243 -1.25144,-2.1046 -1.59696,-2.8264 -0.34625,-0.7488 -0.83554,-1.7644 -1.12164,-2.2982 -0.82626,-1.4395 -1.37588,-4.5935 -1.44686,-8.05934 -0.0579,-3.00536 -0.0354,-3.16846 0.78637,-4.76306 0.46203,-0.9071 0.97589,-1.89673 1.12991,-2.1991 1.41072,-2.80335 4.12682,-5.42664 7.40972,-7.172 2.10862,-1.1162 2.189,-1.14575 4.3862,-1.04517 1.92497,0.054 2.46495,-0.0155 3.42646,-0.50317 1.01478,-0.5166 1.60877,-0.5874 4.45322,-0.58656 2.41077,-0.0143 3.33492,0.0953 3.50492,0.36134 0.1694,0.23916 0.4965,0.31091 0.9529,0.1626 0.37653,-0.0919 1.51426,-0.097 2.49335,0.0379 1.90323,0.24424 2.54987,0.11753 1.4278,-0.2842 -0.52042,-0.2019 -0.35883,-0.23364 0.83301,-0.24023 l 1.49038,0.0119 0.36006,-1.6356 c 0.41054,-1.77245 0.94518,-2.9796 1.70653,-3.8408 0.91831,-1.05543 1.40265,-4.0491 0.73459,-4.6803 -0.22259,-0.21046 -0.2063,-0.5902 0.14972,-1.413 0.40781,-0.9055 0.61836,-1.12827 1.24081,-1.1457 0.40613,-0.0116 0.8068,-0.2127 0.88178,-0.4314 0.10214,-0.2196 0.44877,-0.41897 0.80057,-0.4291 0.37903,-0.0106 0.64517,-0.1808 0.639,-0.39734 -0.006,-0.21656 0.17713,-0.43846 0.39075,-0.55296 0.21433,-0.0874 0.39682,-0.3363 0.39069,-0.5529 -0.0138,-0.4873 0.9595,-1.5172 1.73606,-1.837 0.321,-0.14466 0.63436,-0.5597 0.73122,-0.969 0.14395,-0.6542 1.0315,-1.844 1.25333,-1.66077 0.0278,0.0263 0.65425,0.14407 1.36035,0.20532 1.16925,0.1565 1.30316,0.0987 1.29013,-0.36145 -0.0244,-0.8663 0.6438,-1.18335 2.85892,-1.40857 1.16153,-0.11403 2.23907,-0.33423 2.42477,-0.47483 0.1586,-0.1399 0.99222,-0.3533 1.80208,-0.4574 0.94444,-0.1349 1.50816,-0.3135 1.50215,-0.5299 -0.005,-0.18966 0.17715,-0.43856 0.41845,-0.5267 0.50895,-0.204 2.13236,-0.2771 2.3272,-0.0931 z m 43.59386,38.48297 c -0.53601,0.20472 -1.42078,0.52797 -1.98396,0.73353 -0.53527,0.23181 -1.6405,0.42554 -2.42546,0.44764 -0.75782,0.0216 -1.83692,0.1876 -2.37444,0.3381 -0.96687,0.29824 -0.99318,0.3261 -0.93007,1.5977 0.0692,1.488 -0.75726,2.92 -2.24719,3.8835 -0.45178,0.3106 -1.06134,0.78835 -1.3515,1.0675 -0.29004,0.2792 -1.00562,0.8412 -1.59114,1.20987 -0.58556,0.36877 -1.11705,0.73608 -1.19518,0.84668 -0.0789,0.0832 -0.6358,0.50575 -1.27337,0.95715 -1.24781,0.9022 -1.89545,1.94995 -1.86469,3.0326 0.0222,0.785 0.27112,0.9675 1.76924,1.25036 2.7515,0.54554 2.7786,0.54468 4.15258,-0.68606 0.68609,-0.6428 1.43017,-1.15147 1.59265,-1.156 0.18951,-0.005 0.32177,-0.1174 0.31799,-0.2528 -0.004,-0.1355 0.26221,-0.3054 0.58405,-0.42296 0.69921,-0.18214 2.33697,-1.66454 2.32463,-2.09754 -0.004,-0.13525 0.36366,-0.55224 0.8139,-0.9171 1.56343,-1.2362 3.66994,-3.3817 3.66078,-3.70643 -0.0222,-0.78517 0.96515,-2.276 2.51942,-3.83704 2.31768,-2.34119 2.1308,-3.20303 -0.49824,-2.2887 z"
         id="path10191"
         style="stroke-width:5.61079" />
    </g>
    <g
       style="fill:#ffb694;fill-opacity:1;stroke-width:5.61079;stroke-linejoin:miter"
       id="g10197">
      <path
         d="m 441.5992,754.64185 -1.54582,0.76365 q -8.75586,4.04286 -10.56513,8.9579 -0.54155,1.3889 -0.63675,3.05555 -0.28238,0.72131 0.6747,5.51865 0.1347,1.00747 1.93312,5.8258 0.9126,2.4978 4.28375,9.1331 -2.93335,-3.793 -4.90045,-3.18214 -0.95302,0.0941 -2.30905,2.40014 -1.07251,2.255 -0.51941,4.152 0.21906,0.5819 0.66284,0.9967 0.11218,0.28905 1.7346,0.9443 1.71935,0.583 6.0719,0.6973 l 6.4282,11.145 15.5428,5.96265 -0.85364,-9.08691 q 6.22064,-7.38364 8.22864,-10.93384 1.7519,-3.0654 1.0312,-4.6572 -0.0197,-0.33365 -0.9679,-1.3965 -2.9106,-2.26747 -2.74287,-2.45546 -0.17877,-0.18334 -0.44336,-1.13464 l -0.1676,-1.8207 q -0.0321,-0.1899 -0.12714,-0.25877 -0.68963,-0.10373 -1.75823,1.32067 1.52447,-0.7955 1.38757,-1.79015 -0.30902,-0.89255 -2.78754,-1.98545 4.13001,-4.3744 3.04779,-5.4148 0.0136,-0.1786 -1.04565,-0.7083 -4.48773,-1.3282 -5.29217,-2.1396 -0.3091,-0.13344 -1.27186,-1.4021 -2.61414,-4.8998 -2.86706,-5.0227 -0.15393,-0.34646 -1.70308,-1.8897 -1.82347,-1.86045 -8.5224,-5.59445"
         id="path10195"
         style="stroke-width:5.61079" />
    </g>
    <g
       style="fill:#ffb694;fill-opacity:1;stroke-width:5.61079;stroke-linejoin:miter"
       id="g10201">
      <path
         d="m 452.36514,754.88525 v 0 0 0"
         id="path10199"
         style="stroke-width:5.61079" />
    </g>
    <g
       style="fill:#ffffff;fill-opacity:1;stroke-width:5.61079;stroke-linejoin:miter"
       id="g10205">
      <path
         d="m 441.88498,803.9269 13.6936,1.82664 2.69832,-6.13584 6.2,4.42783 q 20.63104,17.31837 34.43255,34.50027 26.66675,34.77146 29.8779,58.29233 l -52.72647,24.13427 q -2.12311,-35.41405 -8.27301,-55.098 -5.24182,-19.33094 -25.90289,-61.9475"
         id="path10203"
         style="stroke-width:5.61079" />
    </g>
    <g
       style="fill:#ffffff;fill-opacity:1;stroke-width:5.61079;stroke-linejoin:miter"
       id="g10209">
      <path
         d="m 470.087,823.74475 v 0 l 7e-5,1.5e-4 -7e-5,-1.5e-4"
         id="path10207"
         style="stroke-width:5.61079" />
    </g>
    <g
       style="fill:#ff0000;fill-opacity:1;stroke-width:5.61079;stroke-linejoin:miter"
       id="g10213">
      <path
         d="m 455.12198,805.58923 v 2.7e-4 l -0.0226,6.3855 q 3.55811,1.1435 7.11622,2.2871 -0.40613,-3.99806 -0.8122,-7.9961 l -6.28137,-0.67677"
         id="path10211"
         style="stroke-width:5.61079" />
    </g>
    <g
       style="fill:#ff0000;fill-opacity:1;stroke-width:5.61079;stroke-linejoin:miter"
       id="g10217">
      <path
         d="m 459.71463,813.02124 46.74585,60.25806 6.03742,3.33056 -1.58265,-9.9414 -49.80425,-56.31516 -1.39637,2.66794"
         id="path10215"
         style="stroke-width:5.61079" />
    </g>
    <g
       style="fill:#ffffff;fill-opacity:1;stroke-width:5.61079;stroke-linejoin:miter"
       id="g10221">
      <path
         d="m 749.65735,933.0764 -1.28955,0.27895 -14.72583,3.18591 q 2.3e-4,0.001 2.3e-4,0.002 l -0.006,8.3e-4 -1.43055,0.30737 q 2.32789,11.41224 4.65555,22.8242 0.13816,-0.003 0.27634,-0.007 c -0.003,-0.0641 -0.005,-0.12707 -0.007,-0.18883 l -0.0521,-1.8407 3.44104,0.0112 c 4.199,-0.0104 8.9784,0.39614 9.7208,0.78164 0.3302,0.1803 2.3921,0.28456 4.88406,0.26831 1.58324,-0.009 3.08444,0.0325 4.00219,0.0983 l -9.4696,-25.7229 z"
         id="path10219"
         style="stroke-width:5.61079" />
    </g>
    <g
       style="fill:#000000;fill-opacity:1;stroke-width:5.61079;stroke-linejoin:miter"
       id="g10225">
      <path
         d="m 449.5109,768.6902 v 3.5e-4 q -1.21375,0.034 -1.8219,0.18545 -0.24476,0.0574 -0.47413,0.1456 l -0.22454,0.0979 q -0.22023,0.1067 -0.41913,0.2556 -0.19837,0.1504 -0.37537,0.3433 -0.0988,0.0756 -0.49286,0.65416 -0.38489,0.59729 -0.95862,1.90979 l 4.76655,-3.59215"
         id="path10223"
         style="stroke-width:5.61079" />
    </g>
    <g
       style="fill:#000000;fill-opacity:1;stroke-width:5.61079;stroke-linejoin:miter"
       id="g10229">
      <path
         d="m 447.02866,773.0537 0.29924,-0.0939 q 1.99794,-0.59604 2.79597,-1.1604 0.1742,-0.12624 0.31061,-0.26244 0.0867,-0.0631 0.34052,-0.42604 0.2373,-0.36731 0.45153,-1.08349 l -4.19787,3.02623"
         id="path10227"
         style="stroke-width:5.61079" />
    </g>
    <g
       style="fill:#ffffff;fill-opacity:1;stroke-width:5.61079;stroke-linejoin:miter"
       id="g10233">
      <path
         d="m 746.4857,918.6195 c -0.0815,0.0317 -0.1505,0.0453 -0.2141,0.0474 -0.2435,0.007 -0.5383,0.1235 -0.6968,0.2634 -0.31564,0.3341 -3.47995,1.48 -4.07565,1.4967 -0.27075,0.008 -0.59241,0.12525 -0.724,0.2643 -0.36975,0.33556 -3.72365,1.4869 -5.9032,2.009 -2.64065,0.6151 -4.73865,0.90444 -6.98045,0.91506 -0.0593,2.4e-4 -0.1189,4.8e-4 -0.1786,2.4e-4 l -0.003,5e-4 q 1.8395,6.8047 3.68225,13.6096 9.7362,-1.0132 19.47241,-2.02636 l -4.375,-16.57984 z"
         id="path10231"
         style="stroke-width:5.61079" />
    </g>
  </g>
</svg>
