<?xml version="1.0" encoding="iso-8859-1"?>
<!-- Generator: Adobe Illustrator 19.0.0, SVG Export Plug-In . SVG Version: 6.00 Build 0)  -->
<svg version="1.1" id="Layer_1" xmlns="http://www.w3.org/2000/svg" xmlns:xlink="http://www.w3.org/1999/xlink" x="0px" y="0px"
	 viewBox="0 0 512 512" style="enable-background:new 0 0 512 512;" xml:space="preserve">
<path style="fill:#D0EEEF;" d="M22.505,26.725C10.127,26.725,0,36.853,0,49.231v258.813l267.253,22.505L256,26.725H22.505z"/>
<path style="fill:#A0DDDF;" d="M512,49.231c0-12.378-10.127-22.505-22.505-22.505H256v292.571l256-11.253V49.231z"/>
<g>
	<polyline style="fill:#14858A;" points="312.264,476.835 312.264,364.308 199.736,364.308 199.736,476.835 	"/>
	<path style="fill:#14858A;" d="M384,222.128c-35.019,0-64.98,21.579-77.363,52.158h154.725
		C448.98,243.708,419.019,222.128,384,222.128z"/>
</g>
<circle style="fill:#E4769A;" cx="384" cy="137.734" r="50.637"/>
<path style="fill:#DA5B82;" d="M128,222.128c-35.019,0-64.98,21.579-77.363,52.158h154.725
	C192.98,243.708,163.019,222.128,128,222.128z"/>
<circle style="fill:#EEA0B6;" cx="128" cy="137.734" r="50.637"/>
<g>
	<path style="fill:#41BBBE;" d="M0,308.044v45.011c0,12.378,10.127,22.505,22.505,22.505h466.989
		c12.378,0,22.505-10.127,22.505-22.505v-45.011H0z"/>
	<path style="fill:#41BBBE;" d="M416.352,485.275H95.648c-4.662,0-8.44-3.778-8.44-8.44s3.778-8.44,8.44-8.44h320.703
		c4.662,0,8.44,3.778,8.44,8.44S421.014,485.275,416.352,485.275z"/>
</g>
<circle style="fill:#086063;" cx="256" cy="341.802" r="8.44"/>
<g>
</g>
<g>
</g>
<g>
</g>
<g>
</g>
<g>
</g>
<g>
</g>
<g>
</g>
<g>
</g>
<g>
</g>
<g>
</g>
<g>
</g>
<g>
</g>
<g>
</g>
<g>
</g>
<g>
</g>
</svg>
